#!OML:ASF E:\Style4\Style4.ASF
:FULLY-SPECIFIED
:DEGREES
2673
root -0.286621 17.4198 -2.1099 -3.54089 -0.371111 2.83272
lowerback 9.92615 2.58167 -0.0699312
upperback 6.21123 3.41728 0.0367991
thorax 0.888309 1.71097 -0.227281
lowerneck 3.02819 -4.61377 -7.85007
upperneck 6.41109 -6.48582 4.74244
head 1.98212 -3.33765 2.83903
rclavicle 2.83268e-014 -3.18055e-015
rhumerus 13.181 7.66259 -60.1226
rradius 77.2241
rwrist 12.7388
rhand -32.3931 26.2664
rfingers 7.12502
rthumb -5.6283 -3.63887
lclavicle 2.83268e-014 -3.18055e-015
lhumerus 9.54284 -18.8466 59.7002
lradius 87.229
lwrist -5.26786
lhand -22.9644 27.7774
lfingers 7.12502
lthumb 3.47749 57.7287
rfemur -14.5073 0.147061 15.8404
rtibia 41.0894
rfoot -21.7055 -12.1309
rtoes -10.6685
lfemur -10.934 3.65516 -21.7341
ltibia 37.7844
lfoot -22.9037 7.79421
ltoes -13.2531
2674
root -0.289096 17.4233 -2.10846 -3.49128 -0.35503 2.79815
lowerback 9.88205 2.57757 -0.0424053
upperback 6.20713 3.41426 0.0437608
thorax 0.909174 1.71011 -0.23313
lowerneck 3.02083 -4.60726 -7.80324
upperneck 6.39744 -6.47321 4.69501
head 1.97386 -3.3307 2.81435
rclavicle 4.18442e-014 -1.70955e-014
rhumerus 13.201 7.62815 -60.1267
rradius 77.1835
rwrist 12.7989
rhand -32.288 26.3836
rfingers 7.12502
rthumb -5.52684 -3.52431
lclavicle 4.18442e-014 -1.70955e-014
lhumerus 9.51196 -18.8808 59.6654
lradius 87.292
lwrist -5.15678
lhand -23.1133 28.0222
lfingers 7.12502
lthumb 3.33365 57.9759
rfemur -14.5465 0.149395 15.8865
rtibia 41.0892
rfoot -21.7138 -12.1363
rtoes -10.6704
lfemur -10.9606 3.67032 -21.6896
ltibia 37.7179
lfoot -22.8362 7.76737
ltoes -13.2748
2675
root -0.293077 17.4246 -2.10891 -3.44519 -0.323125 2.82344
lowerback 9.8542 2.58098 -0.0910285
upperback 6.20562 3.41511 0.0417799
thorax 0.920053 1.70926 -0.206848
lowerneck 2.99219 -4.59706 -7.82863
upperneck 6.40866 -6.45949 4.72231
head 1.98401 -3.32387 2.82788
rclavicle 4.13472e-014 -1.19271e-015
rhumerus 13.174 7.55059 -60.1531
rradius 77.1852
rwrist 12.8783
rhand -32.1822 26.5342
rfingers 7.12502
rthumb -5.42465 -3.3764
lclavicle 4.13472e-014 -1.19271e-015
lhumerus 9.50609 -18.8879 59.6711
lradius 87.3319
lwrist -5.09359
lhand -23.1103 28.1517
lfingers 7.12502
lthumb 3.33661 58.1054
rfemur -14.6086 0.143536 15.8752
rtibia 41.1054
rfoot -21.6838 -12.1747
rtoes -10.6017
lfemur -10.9846 3.65889 -21.7091
ltibia 37.6532
lfoot -22.7851 7.75079
ltoes -13.2975
2676
root -0.296957 17.4255 -2.1086 -3.37129 -0.292073 2.98491
lowerback 9.7965 2.58137 -0.283037
upperback 6.19011 3.40085 0.00652606
thorax 0.926323 1.69745 -0.132608
lowerneck 3.01911 -4.57317 -7.97286
upperneck 6.39134 -6.4363 4.82143
head 1.98251 -3.31451 2.88973
rclavicle 2.36554e-014 -1.43125e-014
rhumerus 13.1528 7.5259 -60.1798
rradius 77.1438
rwrist 12.9316
rhand -32.0901 26.6604
rfingers 7.12502
rthumb -5.33574 -3.25238
lclavicle 2.36554e-014 -1.43125e-014
lhumerus 9.47982 -18.8415 59.6749
lradius 87.2906
lwrist -5.10235
lhand -23.0245 27.9646
lfingers 7.12502
lthumb 3.41946 57.9169
rfemur -14.7141 0.119513 15.7069
rtibia 41.1226
rfoot -21.6536 -12.2129
rtoes -10.7969
lfemur -11.0397 3.62557 -21.8918
ltibia 37.5954
lfoot -22.7203 7.81987
ltoes -13.5227
2677
root -0.29852 17.426 -2.10751 -3.34003 -0.27866 3.05516
lowerback 9.7953 2.58014 -0.325479
upperback 6.17715 3.39581 -0.038105
thorax 0.913786 1.69456 -0.154784
lowerneck 3.04671 -4.57235 -7.99656
upperneck 6.35722 -6.43921 4.86635
head 1.96953 -3.31592 2.91032
rclavicle -1.59028e-014 1.07344e-014
rhumerus 13.1375 7.53213 -60.1677
rradius 77.1216
rwrist 12.9506
rhand -32.1257 26.6534
rfingers 7.12502
rthumb -5.3701 -3.25857
lclavicle -1.59028e-014 1.07344e-014
lhumerus 9.47704 -18.8539 59.6243
lradius 87.2667
lwrist -5.05609
lhand -23.0021 27.8083
lfingers 7.12502
lthumb 3.44107 57.7603
rfemur -14.7468 0.126136 15.6253
rtibia 41.1294
rfoot -21.7158 -12.1448
rtoes -10.6133
lfemur -11.0423 3.58359 -21.9775
ltibia 37.5429
lfoot -22.6779 7.87056
ltoes -13.5745
2678
root -0.301066 17.4276 -2.10669 -3.31992 -0.304678 2.99104
lowerback 9.79665 2.58948 -0.284925
upperback 6.18004 3.41131 -0.0180861
thorax 0.917174 1.70304 -0.15811
lowerneck 3.05198 -4.57694 -7.99013
upperneck 6.30458 -6.44427 4.85991
head 1.95098 -3.31796 2.90727
rclavicle -1.78906e-015 -1.27222e-014
rhumerus 13.1806 7.54642 -60.0749
rradius 77.1005
rwrist 12.8939
rhand -32.2306 26.5024
rfingers 7.12502
rthumb -5.47134 -3.40699
lclavicle -1.78906e-015 -1.27222e-014
lhumerus 9.47629 -18.8805 59.5777
lradius 87.2922
lwrist -4.96723
lhand -23.0837 27.9466
lfingers 7.12502
lthumb 3.3623 57.8998
rfemur -14.7551 0.154537 15.71
rtibia 41.1102
rfoot -21.7376 -12.1789
rtoes -10.6722
lfemur -11.0408 3.60892 -21.8909
ltibia 37.5014
lfoot -22.6166 7.738
ltoes -12.9313
2679
root -0.304339 17.4304 -2.10537 -3.31044 -0.327106 2.95694
lowerback 9.81128 2.60572 -0.276389
upperback 6.18149 3.43337 0.00294322
thorax 0.909931 1.71393 -0.143851
lowerneck 3.07449 -4.56858 -8.04553
upperneck 6.26697 -6.43637 4.8909
head 1.93774 -3.31479 2.92913
rclavicle -1.27222e-014 5.56597e-015
rhumerus 13.2787 7.57178 -59.9658
rradius 77.0373
rwrist 12.8475
rhand -32.3113 26.3931
rfingers 7.12502
rthumb -5.54932 -3.51425
lclavicle -1.27222e-014 5.56597e-015
lhumerus 9.51238 -18.8699 59.5876
lradius 87.2546
lwrist -4.9467
lhand -23.1315 27.8943
lfingers 7.12502
lthumb 3.31614 57.8482
rfemur -14.7429 0.187183 15.7666
rtibia 41.0735
rfoot -21.694 -12.1937
rtoes -10.628
lfemur -11.0446 3.6062 -21.8367
ltibia 37.4872
lfoot -22.5589 7.66208
ltoes -12.4544
2680
root -0.308041 17.4326 -2.10342 -3.30014 -0.324166 2.92432
lowerback 9.82907 2.60212 -0.245595
upperback 6.18042 3.43087 0.00151508
thorax 0.901014 1.71354 -0.163154
lowerneck 3.00641 -4.55894 -8.06346
upperneck 6.31176 -6.42005 4.89891
head 1.96463 -3.30663 2.93363
rclavicle -1.65985e-014 1.98785e-015
rhumerus 13.4087 7.63166 -59.934
rradius 76.9807
rwrist 12.805
rhand -32.2492 26.2259
rfingers 7.12502
rthumb -5.4893 -3.68304
lclavicle -1.65985e-014 1.98785e-015
lhumerus 9.53773 -18.8166 59.5685
lradius 87.1849
lwrist -5.03894
lhand -23.0522 27.4841
lfingers 7.12502
lthumb 3.39267 57.4369
rfemur -14.7325 0.193602 15.8158
rtibia 41.0359
rfoot -21.6201 -12.2292
rtoes -10.8948
lfemur -11.0477 3.62492 -21.7862
ltibia 37.4884
lfoot -22.6297 7.76239
ltoes -12.9404
2681
root -0.311106 17.4329 -2.10405 -3.23608 -0.293174 2.89084
lowerback 9.79893 2.58453 -0.227158
upperback 6.16778 3.40919 -0.000366345
thorax 0.905364 1.7032 -0.17235
lowerneck 2.97487 -4.54987 -8.03688
upperneck 6.30108 -6.4045 4.88732
head 1.9639 -3.29798 2.92434
rclavicle 1.35174e-014 -2.78299e-015
rhumerus 13.4882 7.65085 -59.9272
rradius 76.9345
rwrist 12.7475
rhand -32.1743 26.1548
rfingers 7.12502
rthumb -5.41705 -3.75592
lclavicle 1.35174e-014 -2.78299e-015
lhumerus 9.53151 -18.7348 59.5348
lradius 87.1858
lwrist -5.12829
lhand -22.9228 27.2386
lfingers 7.12502
lthumb 3.51766 57.1893
rfemur -14.7888 0.180111 15.8602
rtibia 41.0143
rfoot -21.5942 -12.2533
rtoes -11.1272
lfemur -11.1245 3.61232 -21.7463
ltibia 37.4827
lfoot -22.6434 7.89312
ltoes -13.7963
2682
root -0.313414 17.4328 -2.10504 -3.19267 -0.302499 2.8904
lowerback 9.80372 2.59704 -0.234713
upperback 6.15665 3.42504 -0.00551348
thorax 0.891071 1.711 -0.175415
lowerneck 2.96101 -4.54516 -8.04249
upperneck 6.3051 -6.39828 4.90615
head 1.96832 -3.29463 2.93161
rclavicle 1.85864e-014 1.23246e-014
rhumerus 13.505 7.59222 -59.8558
rradius 76.8963
rwrist 12.6976
rhand -32.1455 26.1254
rfingers 7.12502
rthumb -5.38918 -3.78606
lclavicle 1.85864e-014 1.23246e-014
lhumerus 9.54514 -18.6914 59.5337
lradius 87.1752
lwrist -5.17146
lhand -22.8748 27.0684
lfingers 7.12502
lthumb 3.56404 57.0184
rfemur -14.8391 0.183358 15.8697
rtibia 41.0045
rfoot -21.6084 -12.2535
rtoes -10.9596
lfemur -11.1722 3.64687 -21.7395
ltibia 37.4815
lfoot -22.6407 7.80739
ltoes -13.6108
2683
root -0.314528 17.4341 -2.10311 -3.19358 -0.322639 2.93119
lowerback 9.81449 2.6119 -0.243115
upperback 6.16011 3.44392 -0.0353673
thorax 0.890252 1.72075 -0.203533
lowerneck 2.99467 -4.54541 -8.06432
upperneck 6.27273 -6.40307 4.95235
head 1.95493 -3.29698 2.95241
rclavicle -1.5704e-014 1.59028e-015
rhumerus 13.4814 7.58897 -59.812
rradius 76.9493
rwrist 12.6876
rhand -32.1448 26.0246
rfingers 7.12502
rthumb -5.3885 -3.8869
lclavicle -1.5704e-014 1.59028e-015
lhumerus 9.53068 -18.7024 59.5329
lradius 87.2162
lwrist -5.14805
lhand -22.9941 27.1773
lfingers 7.12502
lthumb 3.4488 57.1292
rfemur -14.8291 0.185721 15.82
rtibia 40.9998
rfoot -21.5981 -12.2046
rtoes -10.8188
lfemur -11.1488 3.65481 -21.783
ltibia 37.4784
lfoot -22.6339 7.80192
ltoes -13.3745
2684
root -0.316472 17.4334 -2.10331 -3.19512 -0.305174 2.86647
lowerback 9.84169 2.60045 -0.170468
upperback 6.15758 3.43429 -0.0371186
thorax 0.877125 1.71794 -0.246353
lowerneck 3.02624 -4.54542 -8.05066
upperneck 6.25973 -6.40661 4.98533
head 1.94611 -3.29825 2.96193
rclavicle 2.98177e-015 5.56597e-015
rhumerus 13.4689 7.59178 -59.8502
rradius 76.9946
rwrist 12.6802
rhand -32.1731 25.9909
rfingers 7.12502
rthumb -5.41587 -3.9199
lclavicle 2.98177e-015 5.56597e-015
lhumerus 9.50186 -18.7414 59.5045
lradius 87.2731
lwrist -5.12195
lhand -23.2875 27.7716
lfingers 7.12502
lthumb 3.1655 57.7279
rfemur -14.8193 0.150147 15.8974
rtibia 41.0023
rfoot -21.5821 -12.2233
rtoes -10.8335
lfemur -11.1411 3.64219 -21.7028
ltibia 37.4806
lfoot -22.6261 7.80955
ltoes -13.5957
2685
root -0.317556 17.4342 -2.1036 -3.15816 -0.307592 2.86601
lowerback 9.83798 2.59358 -0.173679
upperback 6.14679 3.42487 -0.0445552
thorax 0.868131 1.71323 -0.251535
lowerneck 3.04857 -4.55303 -8.0789
upperneck 6.22236 -6.41851 4.99413
head 1.93228 -3.30464 2.97074
rclavicle 1.2921e-015 -1.70955e-014
rhumerus 13.52 7.60996 -59.7893
rradius 76.9978
rwrist 12.624
rhand -32.1859 26.0505
rfingers 7.12502
rthumb -5.42824 -3.85999
lclavicle 1.2921e-015 -1.70955e-014
lhumerus 9.44818 -18.6921 59.4992
lradius 87.3214
lwrist -5.14794
lhand -23.2639 27.8979
lfingers 7.12502
lthumb 3.1882 57.8538
rfemur -14.8674 0.121147 15.898
rtibia 41.0087
rfoot -21.6064 -12.1332
rtoes -10.5359
lfemur -11.186 3.62038 -21.7005
ltibia 37.4751
lfoot -22.6408 7.80979
ltoes -13.5054
